# xmcd CD database file
#
# Track frame offsets:
#	187
#	20537
#	43897
#	59197
#	75355
#	92625
#	105612
#	121620
#	141562
#	164652
#
# Disc length: 2482 seconds
#
# Revision: 0
# Processed by: cddbd v1.5.1PL2 Copyright (c) Steve Scherf et al.
# Submitted via: CDex 1.51
#
DISCID=8809b00a
DTITLE=Flat Face - FACE
DYEAR=1986
DGENRE=JPop
TTITLE0=HONEYMOON IN PARIS
TTITLE1=DADA
TTITLE2=LOOK
TTITLE3=シェリーに口づけ
TTITLE4=池を越えて
TTITLE5=ガス燈の下で
TTITLE6=私もヒゲが欲しい
TTITLE7=新しいシャンソン
TTITLE8=MBA
TTITLE9=日々の泡
EXTD=YEAR: 1986
EXTT0=
EXTT1=
EXTT2=
EXTT3=
EXTT4=
EXTT5=
EXTT6=
EXTT7=
EXTT8=
EXTT9=
PLAYORDER=
